<svg id="Capa_1" data-name="Capa 1" xmlns="http://www.w3.org/2000/svg" viewBox="0 0 40 40"><defs><style>.cls-1{fill:none;stroke:#807f7f;stroke-miterlimit:10;stroke-width:2.39px;}.cls-2{fill:#c1292f;}</style></defs><title>logo</title><path class="cls-1" d="M36.87,4.1H5.76A1.8,1.8,0,0,0,4,5.9v17a1.84,1.84,0,0,1,0,.41L2.47,29.57,1.38,34.28A1.79,1.79,0,0,0,3.65,36.4L8.27,35l5.1-1.55a1.89,1.89,0,0,1,.53-.08h23a1.79,1.79,0,0,0,1.8-1.8V5.9A1.79,1.79,0,0,0,36.87,4.1Z"/><path class="cls-2" d="M30.77,17.07A5.42,5.42,0,0,0,20,16.19a5.42,5.42,0,0,0-10.77.88S8.79,23.9,20,28.94C31.21,23.9,30.77,17.07,30.77,17.07Z"/></svg>